<svg xmlns="http://www.w3.org/2000/svg" xmlns:xlink="http://www.w3.org/1999/xlink" version="1.1" id="Foreground" viewBox="0 0 100 100" width="100" height="100" xml:space="preserve">
    <style type="text/css">
        .st0 {
            fill: #FFFFFF;
        }

        .st1 {
            fill: #EE3124;
        }

        .st2 {
            fill: #231F20;
        }

        .st3 {
            fill-rule: evenodd;
            clip-rule: evenodd;
            fill: #231F20;
        }

        .st4 {
            fill-rule: evenodd;
            clip-rule: evenodd;
            fill: #FFFFFF;
        }
    </style>
    <g>
        <path class="st0"
            d="M99.6,50.3c0-27.4-22.2-49.7-49.7-49.7S0.2,22.8,0.2,50.3S22.5,100,49.9,100S99.6,77.7,99.6,50.3z" />
        <path class="st1"
            d="M96.5,50.2C96.5,24.5,75.7,3.7,50,3.7S3.6,24.5,3.6,50.2S24.4,96.6,50,96.6S96.5,75.8,96.5,50.2z" />
        <path class="st0"
            d="M84.3,50.2c0-18.9-15.3-34.2-34.2-34.2S15.8,31.3,15.8,50.2S31.1,84.4,50,84.4S84.3,69.1,84.3,50.2z" />
        <path class="st2"
            d="M0,50.3c0,27.6,22.4,50,50,50s50-22.4,50-50s-22.4-50-50-50S0,22.7,0,50.3z M0.7,50.3C0.7,23.1,22.8,1,50,1   s49.3,22.1,49.3,49.3S77.2,99.5,50,99.5S0.7,77.4,0.7,50.3z" />

        <path class="st2"
            d="M3.2,50.3c0,25.8,21,46.8,46.8,46.8s46.8-21,46.8-46.8S75.8,3.5,50,3.5S3.2,24.5,3.2,50.3z M3.9,50.3   C3.9,24.9,24.6,4.2,50,4.2s46.1,20.7,46.1,46.1S75.4,96.3,50,96.3S3.9,75.7,3.9,50.3z" />

        <path class="st2"
            d="M15.4,50.3c0,19.1,15.5,34.6,34.6,34.6s34.6-15.5,34.6-34.6S69.1,15.6,50,15.6S15.4,31.2,15.4,50.3z    M16.1,50.3c0-18.7,15.2-33.9,33.9-33.9s33.9,15.2,33.9,33.9S68.7,84.2,50,84.2S16.1,69,16.1,50.3z" />

        <polygon class="st0"
            points="50,86.8 50.8,89.3 53.5,89.3 51.4,90.9 52.1,93.4 50,91.9 47.8,93.4 48.6,90.9 46.5,89.3 49.1,89.3     " />

        <path class="st2"
            d="M68.9,69.9l0-34.2c-6-1.3-12.8-2.1-19-2.1s-12.8,0.7-18.8,2l-0.2,0l0,34.3l19,10.9L68.9,69.9L68.9,69.9z    M49.9,80.3L31.5,69.7V36.1c5.9-1.3,12.4-2,18.5-2s12.6,0.7,18.5,2v33.5L49.9,80.3L49.9,80.3z" />

        <path class="st1" d="M47,35.7v15.1c-0.4,0-13.5,0-13.9,0c0-0.4,0-13.3,0-13.6C34.2,37,40.2,35.8,47,35.7z" />
        <g>
            <path class="st1" d="M53,35.7v15.1c0.4,0,13.5,0,13.9,0c0-0.4,0-13.2,0-13.6C65.9,37,59.9,35.8,53,35.7z" />

            <path class="st2"
                d="M52.8,35.7V51h14.3v-14l-0.2,0c-0.1,0-6.5-1.5-13.9-1.5h-0.2L52.8,35.7L52.8,35.7z M53.2,36    c6.7,0.1,12.5,1.2,13.5,1.5c0,0.3,0,12.8,0,13.2c-0.4,0-13,0-13.5,0V36L53.2,36z" />

        </g>
        <path class="st0"
            d="M65.1,41.7h-4c-0.1-0.2-1.2-3.8-1.2-3.8l-0.2,0.5c0,0-1,3-1,3.2h-4c0,0,3,2.3,3.2,2.4   c-0.1,0.2-1.3,3.8-1.3,3.8s3-2.2,3.2-2.4c0.2,0.1,3.2,2.4,3.2,2.4s-1.2-3.6-1.2-3.8C62,44,65.1,41.7,65.1,41.7z" />

        <path class="st2"
            d="M65.2,41.7h-4c-0.1-0.2-1.2-3.8-1.2-3.8l-0.2,0.5c0,0-1,3-1.1,3.3h-4c0,0,3.1,2.3,3.3,2.4   c-0.1,0.2-1.3,3.9-1.3,3.9s3.1-2.2,3.3-2.4c0.2,0.2,3.3,2.4,3.3,2.4s-1.2-3.7-1.3-3.9C62.1,43.9,65.1,41.6,65.2,41.7L65.2,41.7z    M57.3,47c0.2-0.8,1-3.1,1-3.1s0,0,0,0l1.5-0.5L57.3,47L57.3,47z M59.9,43.4L55.8,42h3.2L59.9,43.4L59.9,43.4z M64.1,42   c-0.6,0.4-2.3,1.7-2.5,1.9l-1.6-0.5L64.1,42z M59.9,39.1c0.2,0.8,0.9,2.9,0.9,2.9l0,0l-0.9,1.3C59.9,43.3,59.9,39.1,59.9,39.1z    M62.5,47C62.5,47,62.5,47,62.5,47c-0.6-0.4-2.4-1.8-2.6-1.9v-1.7L62.5,47L62.5,47z" />

        <path class="st2"
            d="M47,35.5c-7.5,0-13.9,1.5-14,1.5l-0.2,0v14h14.3V35.5L47,35.5L47,35.5z M46.8,50.6c-0.4,0-13.1,0-13.5,0   c0-0.4,0-12.9,0-13.2c1-0.2,6.8-1.4,13.5-1.5V50.6L46.8,50.6z" />

        <polygon class="st1" points="53,56.5 66.9,56.5 66.9,68.7 53,76.8  " />
        <path class="st2"
            d="M66.9,56.3H52.8v20.8l14.3-8.3V56.3H66.9z M66.7,56.7v11.8c-0.2,0.1-12.8,7.4-13.5,7.8V56.7L66.7,56.7   L66.7,56.7z" />
        <g>
            <g>
                <g>
                    <path class="st0"
                        d="M59.4,60.5c0-0.2,0.2-0.4,0.4-0.4s0.4,0.2,0.4,0.4S60.1,61,59.9,61S59.4,60.8,59.4,60.5z" />

                    <path class="st2"
                        d="M59.3,60.5c0,0.3,0.3,0.6,0.6,0.6s0.6-0.3,0.6-0.6s-0.3-0.6-0.6-0.6S59.3,60.2,59.3,60.5z M59.6,60.5      c0-0.2,0.1-0.3,0.3-0.3s0.3,0.1,0.3,0.3s-0.1,0.3-0.3,0.3S59.6,60.7,59.6,60.5z" />

                </g>
                <path class="st3"
                    d="M59.2,61.7l-0.1,0.1h1.5l-0.1-0.1c-0.1-0.2-0.4-0.4-0.7-0.4S59.4,61.4,59.2,61.7L59.2,61.7z" />

                <path class="st3"
                    d="M60.8,62.2H59l0,0c-0.3,0.3-0.7,0.6-1.1,0.8l-0.3,0.1h4.6L61.9,63C61.6,62.8,61.1,62.5,60.8,62.2L60.8,62.2     L60.8,62.2L60.8,62.2z" />

                <path class="st2" d="M57.2,63.1c0-0.4-0.4-0.7-0.8-0.7s-0.7,0.3-0.8,0.7H57.2z" />
                <g>
                    <path class="st4"
                        d="M63.1,61.7c0,0,0.1-0.1,0.1-0.1c0,0,0,0,0,0c0.4,0.2,0.7,0.6,0.6,1c0,0.5-0.5,1-1,0.9h-7.7      c0.7,1.2,1.7,2.1,3,2.6c0.5,0.2,1.2,0.4,1.9,0.4c0.7,0,1.3-0.2,1.8-0.4c0.6-0.3,1.2-0.7,1.7-1.2c0.1-0.1,0.1-0.2,0.2-0.2      c0.3-0.3,0.6-0.8,0.7-1.2c0.1-0.2,0.1-0.4,0.1-0.6c0-0.6-0.2-1.2-0.7-1.6c-0.3-0.3-0.8-0.4-1.3-0.2c-0.1,0-0.3,0.2-0.4,0.3      c-0.1,0.1-0.1,0.3-0.1,0.5c0.1,0.2,0.3,0.3,0.6,0.3C63,62,63.1,61.9,63.1,61.7L63.1,61.7z" />

                    <path class="st3"
                        d="M62.6,60.9c-0.2,0.1-0.3,0.2-0.4,0.3c-0.2,0.2-0.2,0.4-0.1,0.6c0.1,0.3,0.5,0.5,0.8,0.4      c0.2-0.1,0.3-0.3,0.4-0.4c0.3,0.1,0.5,0.4,0.5,0.8c0,0,0,0,0,0.1c0,0.5-0.4,0.8-0.8,0.8h-8l0.2,0.3c0.7,1.2,1.8,2.1,3,2.7      c0.6,0.2,1.3,0.4,2,0.4c0.7,0,1.3-0.2,1.9-0.5c0.7-0.3,1.2-0.7,1.8-1.2l0.2-0.2c0.3-0.3,0.6-0.8,0.8-1.3      c0.1-0.2,0.1-0.4,0.1-0.6c0-0.7-0.2-1.3-0.7-1.7C63.7,60.8,63.1,60.7,62.6,60.9L62.6,60.9z M62.4,61.7c0-0.1,0-0.2,0.1-0.3      c0.1-0.1,0.2-0.2,0.3-0.2c0.4-0.2,0.8,0,1.1,0.2c0.4,0.3,0.6,0.8,0.6,1.4c0,0.1,0,0.3-0.1,0.5c-0.1,0.4-0.4,0.9-0.7,1.2      l-0.2,0.2c-0.5,0.5-1,0.9-1.7,1.2c-0.5,0.2-1.1,0.4-1.8,0.4c-0.6,0-1.3-0.1-1.8-0.3c-1.1-0.4-2-1.2-2.7-2.2c0.6,0,7.3,0,7.3,0      c0.6,0,1.1-0.4,1.2-1.1c0-0.5-0.3-1-0.7-1.2l-0.1,0c-0.1,0-0.2,0.1-0.3,0.2l0,0c0,0.2-0.1,0.2-0.2,0.3      C62.6,62,62.5,61.9,62.4,61.7L62.4,61.7z M63.3,61.8L63.3,61.8C63.3,61.8,63.3,61.8,63.3,61.8C63.3,61.8,63.3,61.8,63.3,61.8z" />

                </g>
                <path class="st3"
                    d="M57.3,63.6c0.2,1.5,1.3,2.7,2.7,3.1l0.1-0.3c-1.3-0.4-2.3-1.5-2.5-2.8C57.7,63.6,57.3,63.6,57.3,63.6z" />

                <path class="st3" d="M59.8,66.4l0.1,0.3c1.4-0.4,2.5-1.6,2.7-3.1l-0.4-0.1C62,64.9,61.1,66,59.8,66.4z" />
                <g>
                    <path class="st4" d="M58.7,67.6c0-0.7,0.5-1.2,1.2-1.2s1.2,0.6,1.2,1.2H58.7z" />
                    <path class="st3"
                        d="M58.5,67.6v0.2h2.8v-0.2c0-0.8-0.6-1.4-1.4-1.4S58.5,66.8,58.5,67.6z M60,66.6c0.5,0,0.9,0.4,1,0.9h-2      C59,66.9,59.4,66.6,60,66.6z" />

                </g>
                <rect x="59.8" y="63.7" class="st2" width="0.4" height="2.8" />
                <path class="st3" d="M62.4,68.8h-4.9c0-0.4,0.3-0.7,0.8-0.7h3.4C62.1,68.1,62.4,68.4,62.4,68.8z" />
            </g>
            <path class="st0"
                d="M56.4,61.8c-0.2-0.1-0.3-0.2-0.3-0.5c0-0.1,0-0.2,0.1-0.2l0.5-0.8c0.1-0.1,0.1-0.3,0.1-0.5    c0-0.4-0.2-0.7-0.6-0.8c0.1,0.3-0.2,0.6-0.6,1.1c-0.2,0.3-0.3,0.7-0.2,1.1c0.1,0.5,0.5,0.9,1,0.9l0,0c0.6,0,1-0.5,1-1    c0-0.4-0.2-0.7-0.5-0.8c0,0.1,0.1,0.1,0.1,0.2c0,0,0,0.1,0,0.2c-0.1,0.2-0.3,0.5-0.5,0.8c0,0.1-0.1,0.2-0.1,0.2    C56.4,61.7,56.4,61.8,56.4,61.8L56.4,61.8z" />

        </g>
        <g>
            <g>
                <g>
                    <path class="st4"
                        d="M40.1,46.5c0.3-0.6,1-0.9,1.7-0.8c0.8,0,1.4,0.2,2.2,0.3v-6.1c-0.9-0.1-1.5-0.4-2.2-0.5      c-0.6,0-1.3,0.3-1.7,0.9" />

                    <path class="st3"
                        d="M39.9,40.3l0.3,0.2c0.3-0.5,0.9-0.9,1.5-0.8c0.4,0,0.8,0.1,1.1,0.2c0.3,0.1,0.6,0.1,1,0.2v5.7      c-0.2,0-0.6-0.1-0.6-0.1c-0.5-0.1-0.9-0.1-1.5-0.2c-0.7,0-1.5,0.3-1.8,1l0.3,0.2c0.3-0.5,0.9-0.8,1.5-0.8c0.5,0,0.9,0.1,1.4,0.2      l1,0.2V46v-6.2l-0.2,0c-0.4,0-0.8-0.1-1.1-0.2c-0.4-0.1-0.7-0.2-1.2-0.2C41.1,39.2,40.3,39.7,39.9,40.3L39.9,40.3z" />

                </g>
                <g>
                    <path class="st4"
                        d="M40.1,46.5c-0.3-0.6-1.1-0.9-1.7-0.8c-0.8,0-1.3,0.2-2.2,0.3v-6.1c0.9-0.1,1.4-0.4,2.2-0.5      c0.6,0,1.3,0.3,1.7,0.9" />

                    <path class="st3"
                        d="M38.4,39.2c-0.5,0-0.8,0.1-1.2,0.2c-0.3,0.1-0.6,0.2-1,0.2l-0.2,0v6.4l1-0.2c0.5-0.1,0.9-0.1,1.4-0.2      c0.6,0,1.2,0.3,1.5,0.8l0.3-0.2c-0.3-0.6-1.1-1-1.8-1c-0.5,0-1,0.1-1.5,0.2c0,0-0.3,0-0.5,0.1V40c0.3-0.1,0.6-0.1,0.9-0.2      c0.4-0.1,0.7-0.2,1.1-0.2c0.5,0,1.2,0.3,1.5,0.8l0.3-0.2C39.8,39.6,39.1,39.2,38.4,39.2L38.4,39.2z" />

                </g>
                <rect x="39.9" y="40.4" class="st2" width="0.4" height="6.2" />
                <path class="st3"
                    d="M40.6,46.8h4.1v-6.5l-0.5-0.5h1.1v7.6H41c-0.2,0.2-0.6,0.4-0.9,0.4s-0.7-0.2-0.9-0.4h-4.3v-7.6H36l-0.5,0.5     v6.5h4c0.1,0.2,0.3,0.3,0.6,0.3S40.5,47,40.6,46.8L40.6,46.8z" />

            </g>
            <path class="st3"
                d="M40.2,46.5c0,0.1-0.1,0.2-0.2,0.2s-0.2-0.1-0.2-0.2c0-0.1,0.1-0.2,0.2-0.2S40.2,46.4,40.2,46.5z" />
        </g>
        <g>
            <polygon class="st1" points="46.9,56.5 33,56.5 33,68.7 47,76.7   " />
            <path class="st2"
                d="M46.9,56.3H32.8v12.5L47.2,77V56.3H46.9z M46.7,56.7v19.6c-0.6-0.3-13.2-7.6-13.5-7.7V56.7    C33.3,56.7,46.7,56.7,46.7,56.7z" />

        </g>
        <g>
            <path class="st4"
                d="M40.9,61.6h0.8v-0.7h-0.1c-0.4,0-0.7-0.3-0.7-0.7s0.3-0.7,0.7-0.7h0.1v-0.7c-0.2,0-0.6,0-0.8,0    c0,0.4-0.3,0.7-0.7,0.8v1.2C40.6,60.9,40.9,61.2,40.9,61.6z M39.9,58.9c0-0.1-0.1-0.2-0.2-0.2h-0.2c-0.1,0-0.2,0.1-0.2,0.2v0.3    h0.5L39.9,58.9L39.9,58.9z M39.9,59.5h-0.5v1.6h0.5V59.5z M40.1,66.2l-0.1,0v-4.8h-0.5v4.8l-0.1,0c-1,0.1-1.7,0.7-1.7,1.4    c0,0.8,0.9,1.4,2.1,1.4s2.1-0.6,2.1-1.4C41.7,67,41,66.4,40.1,66.2z M39.7,68.5c-0.8,0-1.5-0.4-1.5-0.9s0.7-0.9,1.5-0.9    s1.5,0.4,1.5,0.9S40.5,68.5,39.7,68.5z" />

            <path class="st3"
                d="M41.8,66.8c-0.3-0.3-0.7-0.6-1.2-0.8v-4.2l0.3,0.3h1.4v-1.4L42,60.6h-0.5v-0.1c0-0.2,0.2-0.4,0.3-0.4h0.4    v-1.3L42,58.6l0,0h-0.2h-0.7h-0.3h-0.2v0.2c0,0.2,0,0.3-0.1,0.4c0-0.1-0.1-0.2-0.1-0.2l0,0l0,0l0,0l-0.4-0.3l0,0    c-0.1-0.1-0.2-0.1-0.3-0.1h-0.2c-0.3,0-0.5,0.2-0.5,0.5V66c-1,0.2-1.8,0.9-1.8,1.7c0,0.5,0.2,0.9,0.6,1.2c0.4,0.5,1.2,0.9,2.1,0.9    c1.3,0,2.4-0.8,2.4-1.8C42.4,67.5,42.2,67.1,41.8,66.8L41.8,66.8z M40.2,59.6c0.4-0.1,0.7-0.3,0.7-0.8c0.2,0,0.6,0,0.8,0v0.7h-0.1    c-0.4,0-0.7,0.3-0.7,0.7s0.3,0.7,0.7,0.7h0.1v0.7h-0.8c0-0.4-0.3-0.7-0.7-0.8C40.2,60.8,40.2,59.6,40.2,59.6z M39.4,58.9    c0-0.1,0.1-0.2,0.2-0.2h0.2c0.1,0,0.2,0.1,0.2,0.2v0.3h-0.5L39.4,58.9L39.4,58.9z M39.4,59.5h0.5v1.6h-0.5V59.5z M39.7,69.1    c-1.1,0-2.1-0.6-2.1-1.4c0-0.7,0.7-1.2,1.7-1.4l0.1,0v-4.8h0.5v4.8l0.1,0c1,0.1,1.7,0.7,1.7,1.4C41.7,68.4,40.8,69.1,39.7,69.1z     M39.7,66.7c-0.8,0-1.5,0.4-1.5,0.9s0.7,0.9,1.5,0.9s1.5-0.4,1.5-0.9S40.5,66.7,39.7,66.7z M40.1,68.2c-0.8,0.2-1.3-0.1-1.3-0.1    s-0.1-0.4,0.6-0.6c0.7-0.2,1.3,0.1,1.3,0.1S40.9,68,40.1,68.2L40.1,68.2z" />

        </g>
        <path class="st3"
            d="M50.2,24.5l0.3-0.5l0,0c0,0,0.3,0.6,0.4,0.6h-2.1c0,0,0.4-0.6,0.4-0.6c0,0,0.3,0.5,0.3,0.5   c0,0,0.3-0.5,0.3-0.5C49.9,24,50.2,24.5,50.2,24.5L50.2,24.5L50.2,24.5z" />

        <path class="st3"
            d="M61.7,24.8c0.1-0.1,0.2-0.2,0.3-0.2s0.3,0,0.3,0.1c0,0,2.7,2.3,3.8,3.3c-0.8,0-2.5-0.5-4.5-2.6l0,0   c-0.1-0.1-0.1-0.2-0.1-0.3c0,0,0,0,0,0C61.6,25,61.6,24.9,61.7,24.8L61.7,24.8z M54.4,28.6v-0.1c0-0.1,0.1-0.1,0.2-0.1l0,0l0.1,0.1   c0,0,0.4,1,0.6,1.5C55,29.8,54.6,29.5,54.4,28.6C54.4,28.6,54.4,28.6,54.4,28.6L54.4,28.6z M53.3,27.4c0,0,0.1-0.1,0.1-0.1l0.1,0   c0,0,0.4,0.6,0.7,0.9C53.9,28.2,53.6,28,53.3,27.4L53.3,27.4L53.3,27.4L53.3,27.4L53.3,27.4L53.3,27.4z M53.7,27.2   C53.7,27.2,53.7,27.2,53.7,27.2L53.7,27.2c0-0.1,0.1-0.2,0.1-0.1l0.1,0c0,0,0.5,0.7,0.7,1C54.4,28,54.1,27.8,53.7,27.2L53.7,27.2z    M59.6,25.5c-0.4-0.1-1.2-0.4-2-1.5l0,0c0,0,0-0.1,0-0.1c0,0,0,0,0,0c0-0.1,0.1-0.2,0.3-0.2c0.1,0,0.1,0,0.2,0.1   C58,23.7,59.2,25,59.6,25.5L59.6,25.5z M58.1,23.3c0-0.1,0-0.1,0.1-0.2c0-0.1,0.1-0.1,0.2-0.1c0.1,0,0.2,0,0.2,0.1   c0,0,1.5,1.3,2.1,1.8c-0.4,0-1.3-0.2-2.5-1.3l0,0C58.2,23.4,58.1,23.4,58.1,23.3C58.1,23.3,58.1,23.3,58.1,23.3z M55.4,26   c0,0,0.6,0.8,0.8,1.2c-0.2-0.1-0.7-0.3-1.1-1.1l0-0.1C55.1,26,55.2,26,55.4,26L55.4,26L55.4,26z M55.5,25.8L55.5,25.8L55.5,25.8   L55.5,25.8l0-0.1l0.1-0.1l0.1,0l0.1,0.1c0,0,0.6,0.9,0.9,1.3C56.4,26.8,56,26.6,55.5,25.8L55.5,25.8z M56,25.4   C56,25.4,56,25.4,56,25.4l0-0.1c0-0.1,0.1-0.2,0.2-0.1l0.1,0.1c0,0,0.7,1,1,1.4C57.1,26.6,56.5,26.3,56,25.4L56,25.4z M56.6,24.9   L56.6,24.9L56.6,24.9L56.6,24.9l0-0.1c0-0.1,0.1-0.1,0.2-0.1c0,0,0.1,0,0.1,0.1c0,0,0.7,1.1,1.1,1.5C57.6,26.2,57.1,25.8,56.6,24.9   L56.6,24.9z M57.1,24.5c0,0,0-0.1,0-0.1c0,0,0,0,0,0c0,0,0-0.1,0.1-0.1c0,0,0.1,0,0.2,0c0.1,0,0.1,0,0.1,0.1c0,0,0.9,1.2,1.3,1.7   C58.4,25.8,57.8,25.5,57.1,24.5z M56.6,22.9L56.6,22.9L56.6,22.9L56.6,22.9L56.6,22.9l-0.1-0.1c0,0,0,0,0-0.1   c0-0.1,0.1-0.2,0.1-0.2c0.1,0,0.1,0,0.2,0c0,0,0.7,0.4,1.1,0.5C57.7,23.1,57.2,23.2,56.6,22.9L56.6,22.9z M57.1,23.5   c-0.2,0.1-0.6,0.1-1.1-0.3c0,0,0,0,0,0l0,0c0-0.1,0-0.1,0-0.1c0-0.1,0.1-0.2,0.2-0.2l0,0C56.2,23,56.8,23.4,57.1,23.5L57.1,23.5z    M56.6,24.1c-0.2,0-0.5,0.1-0.9-0.2l0,0l0,0l-0.1-0.1l0,0l0-0.1c0,0,0.1-0.1,0.1-0.1c0,0,0.1,0,0.1,0   C55.9,23.6,56.3,23.9,56.6,24.1z M55.7,24.3c0,0,0.3,0.2,0.5,0.3c-0.2,0-0.4,0.1-0.7-0.1l0,0l0,0l-0.1-0.1v0c0-0.1,0-0.1,0.1-0.2   L55.7,24.3z M55.8,25c-0.1,0.1-0.4,0.2-0.6,0.1l0,0l0,0L55.2,25c0,0,0,0,0,0c0,0,0-0.1,0.1-0.1h0.1C55.3,24.8,55.6,25,55.8,25   L55.8,25z M55.4,25.5c-0.1,0.1-0.3,0.2-0.5,0.1l0,0l0,0l0,0l-0.1,0c0,0,0,0,0-0.1c0,0,0-0.1,0.1-0.1l0.1,0   C54.9,25.4,55.2,25.4,55.4,25.5L55.4,25.5z M54.8,26.3L54.8,26.3c0.1,0,0.6,0.8,0.9,1.2c-0.2-0.1-0.6-0.3-1-1l0,0l0,0l0,0l0-0.1   L54.8,26.3C54.7,26.3,54.8,26.3,54.8,26.3z M55.1,27.8c-0.2-0.1-0.6-0.3-0.9-1v-0.1c0-0.1,0.1-0.1,0.1-0.1l0.1,0   C54.4,26.7,54.9,27.4,55.1,27.8L55.1,27.8z M54.9,28.4C54.9,28.4,54.9,28.4,54.9,28.4v-0.1l0.1-0.1c0,0,0.1,0,0.1,0   c0,0,0.1,0,0.1,0.1c0,0,0.5,1,0.8,1.5C55.6,29.6,55.2,29.2,54.9,28.4L54.9,28.4z M55.4,28.2C55.4,28.2,55.4,28.1,55.4,28.2   c0-0.1,0-0.1,0-0.1c0-0.1,0-0.1,0.1-0.1c0,0,0.1,0,0.1,0c0,0,0.1,0,0.1,0.1c0,0,0.7,1.1,1.1,1.6C56.4,29.5,55.9,29.1,55.4,28.2   L55.4,28.2z M56.1,27.9c0,0,0-0.1,0-0.1c0,0,0,0,0,0c0-0.1,0.1-0.2,0.2-0.2c0.1,0,0.1,0,0.2,0.1c0,0,1.2,1.3,1.7,1.9   C57.7,29.4,57,29,56.1,27.9L56.1,27.9z M57,27.5c0,0-0.1-0.1-0.1-0.2l0,0c0-0.2,0.1-0.3,0.3-0.3c0.1,0,0.1,0,0.2,0.1   c0,0,1.4,1.5,2,2.1C58.9,29.2,58,28.8,57,27.5L57,27.5z M57.9,27.2L57.9,27.2c0-0.1-0.1-0.1-0.1-0.2v0c0-0.2,0.1-0.3,0.3-0.4   c0.1,0,0.2,0,0.2,0.1c0,0,1.9,1.6,2.7,2.4C60.5,29,59.4,28.7,57.9,27.2L57.9,27.2z M59.2,26.7c-0.1-0.1-0.1-0.2-0.1-0.2   c0,0,0,0,0,0c0-0.1,0-0.2,0.1-0.3c0.1-0.1,0.2-0.1,0.3-0.1c0.1,0,0.2,0,0.3,0.1c0,0,2.2,1.9,3.1,2.7C62.2,28.8,60.8,28.5,59.2,26.7   L59.2,26.7z M60.5,26.2L60.5,26.2c-0.1-0.1-0.1-0.2-0.1-0.3v0c0-0.2,0.2-0.4,0.4-0.4c0.1,0,0.2,0,0.3,0.1c0,0,2.4,2.1,3.4,3   C63.8,28.4,62.3,28.1,60.5,26.2z M53.1,25.1c0.3,0,0.6-0.1,0.9-0.3c0.3-0.3,0.4-0.7,0.5-1.1c0.1-0.7,0.3-1.3,0.7-1.6   c1-1.1,3-1.1,4.5,0.1l1.8,1.5c0.1,0.1,0.2,0.3,0,0.5c-0.1,0.1-0.3,0.1-0.5,0l-1.7-1.5c-1.2-1-2.8-1.1-3.6-0.2   c-0.3,0.3-0.4,0.7-0.5,1.3c-0.1,0.5-0.2,1-0.7,1.5c-0.4,0.3-0.8,0.4-1.3,0.4c-0.2,0-0.3-0.2-0.3-0.3S52.9,25.1,53.1,25.1L53.1,25.1   z M38.4,23.8c0,0,1.8-1.5,1.8-1.5c1.5-1.2,3.5-1.3,4.5-0.1c0.4,0.4,0.6,0.9,0.7,1.6c0,0.4,0.1,0.8,0.5,1c0.2,0.2,0.5,0.3,0.8,0.3   c0.2,0,0.3,0.1,0.3,0.3c0,0.2-0.1,0.3-0.3,0.3c-0.5,0-0.9-0.1-1.3-0.4c-0.5-0.4-0.7-1-0.7-1.5c-0.1-0.6-0.2-1-0.5-1.3   c-0.8-0.9-2.4-0.8-3.6,0.2l-1.8,1.5c-0.1,0.1-0.3,0.1-0.5,0C38.3,24.1,38.3,23.9,38.4,23.8L38.4,23.8z M45.6,26.8L45.6,26.8   L45.6,26.8c-0.4,0.6-0.7,0.9-0.9,0.9c0.2-0.3,0.8-1.1,0.8-1.1l0.1,0C45.5,26.6,45.6,26.7,45.6,26.8L45.6,26.8L45.6,26.8L45.6,26.8   L45.6,26.8z M45.1,26.4c0,0,0,0.1,0,0.1c-0.4,0.7-0.8,0.9-1,1c0.2-0.3,0.8-1.1,0.8-1.1l0.1,0L45.1,26.4L45.1,26.4   C45.1,26.4,45.1,26.4,45.1,26.4z M42.7,24.4L42.7,24.4L42.7,24.4c-0.7,1-1.3,1.3-1.6,1.4c0.3-0.4,1.3-1.7,1.3-1.7   c0,0,0.1-0.1,0.1-0.1c0.1,0,0.1,0,0.2,0c0,0,0.1,0.1,0.1,0.1C42.7,24.3,42.7,24.4,42.7,24.4C42.7,24.4,42.7,24.4,42.7,24.4z    M42.9,24.7c0,0,0.1-0.1,0.1-0.1c0.1,0,0.2,0,0.2,0.1l0,0.1l0,0l0,0l0,0c-0.5,0.9-1.1,1.2-1.4,1.4C42.1,25.9,42.9,24.7,42.9,24.7   L42.9,24.7z M43.5,25.2c0,0,0.1-0.1,0.1-0.1c0.1,0,0.2,0,0.2,0.1l0,0.1c0,0,0,0,0,0c-0.5,0.9-1,1.2-1.3,1.3   C42.6,26.4,43.5,25.2,43.5,25.2z M44,25.6L44,25.6l0.2,0l0.1,0.1l0,0.1c0,0,0,0,0,0c-0.5,0.8-0.9,1-1.2,1.1   C43.3,26.6,44,25.6,44,25.6L44,25.6z M44.4,26L44.4,26l0.2,0l0.1,0.1l0,0.1l0,0l0,0l0,0c-0.4,0.7-0.8,1-1.1,1   C43.7,26.9,44.4,26,44.4,26L44.4,26z M45,25.5L45,25.5L45,25.5L45,25.5L45,25.5c-0.3,0.1-0.5,0-0.6-0.1c0.2,0,0.5-0.1,0.5-0.1   l0.1,0L45,25.5C45,25.5,45,25.5,45,25.5z M44.6,25C44.6,25,44.5,25.1,44.6,25L44.6,25L44.6,25c-0.3,0.2-0.5,0.1-0.7,0   c0.2-0.1,0.5-0.2,0.5-0.2h0.1C44.6,24.9,44.6,24.9,44.6,25C44.6,25,44.6,25,44.6,25L44.6,25z M44.3,24.4L44.3,24.4L44.3,24.4   L44.3,24.4c-0.3,0.3-0.6,0.2-0.7,0.2c0.2-0.1,0.5-0.3,0.5-0.3l0.1,0C44.2,24.3,44.3,24.3,44.3,24.4L44.3,24.4L44.3,24.4z    M44.1,23.9L44.1,23.9c-0.3,0.3-0.7,0.3-0.9,0.2c0.2-0.1,0.7-0.5,0.7-0.5c0,0,0.1,0,0.1,0c0.1,0,0.2,0.1,0.2,0.2L44.1,23.9   L44.1,23.9z M43.8,23.1c0,0.1,0,0.1-0.1,0.1l0,0c-0.5,0.4-0.9,0.3-1.1,0.3c0.2-0.1,0.9-0.6,0.9-0.6c0,0,0.1,0,0.2,0   C43.8,22.9,43.8,23,43.8,23.1L43.8,23.1z M43.2,22.7c0,0-0.1,0.1-0.1,0.1l0,0l0,0l0,0l0,0l0,0c-0.6,0.3-1,0.2-1.3,0.1   c0.2-0.1,1.1-0.5,1.1-0.5c0,0,0.1,0,0.2,0C43.2,22.5,43.2,22.6,43.2,22.7C43.2,22.7,43.2,22.7,43.2,22.7L43.2,22.7z M41.9,23.5   c0.1,0,0.1,0,0.2,0.1c0,0,0.1,0.1,0.1,0.2c0,0,0,0,0,0c0,0,0,0.1,0,0.1l0,0c-0.8,1.1-1.6,1.4-2,1.5c0.3-0.3,1.6-1.8,1.6-1.8   C41.8,23.6,41.8,23.5,41.9,23.5L41.9,23.5z M41.6,23.3c0,0.1,0,0.1-0.1,0.2c-1.1,1.1-2,1.3-2.5,1.3c0.3-0.3,2.1-1.8,2.1-1.8   c0,0,0.1-0.1,0.2-0.1c0.1,0,0.1,0,0.2,0.1C41.6,23.2,41.6,23.2,41.6,23.3C41.6,23.3,41.6,23.3,41.6,23.3z M39.3,25.5   c0.1,0.1,0.1,0.2,0.1,0.3v0c0,0.1,0,0.2-0.1,0.3c0,0.1,0,0.1,0,0c-1.8,1.9-3.3,2.3-4,2.3c0.7-0.6,3.4-3,3.4-3   c0.1-0.1,0.2-0.1,0.3-0.1C39.1,25.4,39.2,25.5,39.3,25.5L39.3,25.5z M40,26.2c0.1-0.1,0.2-0.1,0.3-0.1c0.2,0,0.4,0.2,0.4,0.4   c0,0,0,0,0,0c0,0.1,0,0.2-0.1,0.2l0,0c-1.6,1.7-3,2-3.6,2.1C37.5,28.3,40,26.1,40,26.2L40,26.2z M41.3,26.7   c0.1-0.1,0.2-0.1,0.3-0.1c0.2,0,0.3,0.2,0.3,0.3v0c0,0.1,0,0.2-0.1,0.2l0,0c-1.4,1.5-2.6,1.8-3.2,1.9   C39.2,28.6,41.3,26.7,41.3,26.7L41.3,26.7z M42.4,27.2c0.1-0.1,0.1-0.1,0.2-0.1c0.1,0,0.3,0.1,0.3,0.3l0,0c0,0.1,0,0.1-0.1,0.2l0,0   c-1,1.3-1.9,1.6-2.4,1.7C40.8,28.8,42.4,27.2,42.4,27.2z M43.3,27.6c0,0,0.1-0.1,0.2-0.1c0.1,0,0.2,0.1,0.2,0.2l0,0   c0,0.1,0,0.1-0.1,0.2c-0.8,1.1-1.6,1.5-2.1,1.6C42,29,43.3,27.6,43.3,27.6L43.3,27.6z M44,28C44,28,44.1,27.9,44,28   c0.1-0.1,0.2-0.1,0.2,0c0,0,0,0,0.1,0.1c0,0,0,0,0,0c0,0,0,0,0,0.1c-0.5,0.9-1,1.3-1.3,1.5C43.3,29.1,44,28,44,28L44,28z    M44.6,28.2L44.6,28.2c0.1-0.1,0.2-0.1,0.2-0.1l0.1,0.1v0.1c0,0,0,0,0,0c-0.3,0.9-0.7,1.2-1,1.4C44.1,29.3,44.6,28.2,44.6,28.2z    M45.1,28.5L45.1,28.5l0.2-0.1l0.1,0.1l0,0v0.1l0,0c-0.2,0.9-0.6,1.2-0.9,1.4C44.7,29.6,45.1,28.5,45.1,28.5L45.1,28.5z M45.1,28   c0.2-0.3,0.7-1,0.7-1l0.1,0l0.1,0l0,0.1l0,0.1c0,0,0,0,0,0C45.7,27.7,45.4,28,45.1,28L45.1,28z M46.3,27.4L46.3,27.4   c0.1,0,0.2,0,0.2,0l0,0.1l0,0l0,0c-0.3,0.5-0.6,0.7-0.8,0.8C45.8,28,46.3,27.4,46.3,27.4z M37.4,24.7c0.1-0.1,0.2-0.1,0.4-0.1   c0.3,0,0.5,0.2,0.5,0.5v0c0,0.1-0.1,0.2-0.1,0.3c-2,2.1-3.7,2.5-4.5,2.6C34.3,27.4,37.4,24.7,37.4,24.7L37.4,24.7z M29,32   c0.7-0.6,3.8-3.3,3.8-3.3c0.1-0.1,0.2-0.1,0.3-0.1c0.1,0,0.2,0.1,0.3,0.1s0.1,0.2,0.1,0.3c0,0,0,0,0,0c0,0.1-0.1,0.2-0.1,0.3   C31.4,31.5,29.8,31.9,29,32z M31.2,32.1c0.7-0.6,3.4-3,3.4-3C34.7,29,34.8,29,35,29c0.1,0,0.2,0,0.3,0.1c0.1,0.1,0.1,0.2,0.1,0.3v0   c0,0.1-0.1,0.2-0.1,0.3C33.4,31.6,32,32,31.2,32.1L31.2,32.1z M33.3,32.1c0.6-0.5,3.1-2.7,3.1-2.7c0.1-0.1,0.2-0.1,0.3-0.1   c0.1,0,0.2,0,0.3,0.1c0.1,0.1,0.1,0.2,0.1,0.3v0c0,0.1,0,0.2-0.1,0.3l0,0C35.3,31.7,34,32,33.3,32.1z M35.3,32.1   c0.5-0.5,2.8-2.4,2.8-2.4c0.1-0.1,0.2-0.1,0.3-0.1s0.2,0,0.2,0.1c0.1,0.1,0.1,0.1,0.1,0.2c0,0,0,0,0,0c0,0.1,0,0.2-0.1,0.2l0,0   C37.1,31.8,35.9,32.1,35.3,32.1L35.3,32.1z M37.2,32.2c0.5-0.5,2.3-2.4,2.3-2.4c0,0,0.1-0.1,0.2-0.1c0.2,0,0.3,0.1,0.3,0.3l0,0   c0,0.1,0,0.2-0.1,0.2C38.8,31.7,37.7,32.1,37.2,32.2L37.2,32.2z M38.9,32.1c0.4-0.5,1.9-2.2,1.9-2.2c0-0.1,0.1-0.1,0.2-0.1   c0.1,0,0.1,0,0.2,0.1c0.1,0,0.1,0.1,0.1,0.2c0,0,0,0,0,0c0,0.1,0,0.1,0,0.2C40.3,31.6,39.4,32,38.9,32.1L38.9,32.1z M40.4,32.1   c0.4-0.5,1.5-2,1.5-2c0,0,0.1-0.1,0.2-0.1c0.1,0,0.2,0.1,0.3,0.2c0,0,0,0,0,0c0,0,0,0.1,0,0.1C41.5,31.6,40.8,32,40.4,32.1   L40.4,32.1z M41.6,32.1c0.3-0.5,1.2-1.9,1.2-1.9c0,0,0.1-0.1,0.1-0.1c0,0,0.1,0,0.1,0c0,0,0.1,0.1,0.1,0.1c0,0,0,0,0,0   c0,0,0,0.1,0,0.1C42.6,31.5,42,31.9,41.6,32.1L41.6,32.1z M42.7,32c0.3-0.5,0.9-1.8,0.9-1.8c0,0,0-0.1,0.1-0.1c0,0,0.1,0,0.1,0   c0,0,0.1,0,0.1,0.1c0,0,0,0.1,0,0.1l0,0l0,0l0,0C43.5,31.4,43.1,31.8,42.7,32L42.7,32z M43.6,32c0.2-0.5,0.6-1.6,0.6-1.6   c0,0,0-0.1,0.1-0.1c0,0,0.1,0,0.1,0c0,0,0,0,0.1,0.1l0,0c0,0,0,0.1,0,0.1l0,0c0,0,0,0,0,0l0,0l0,0C44.3,31.3,43.9,31.8,43.6,32z    M45,30.6c-0.1,0.7-0.4,1.1-0.6,1.4c0.2-0.5,0.4-1.4,0.4-1.4l0-0.1C44.9,30.4,45,30.4,45,30.6L45,30.6L45,30.6   C45,30.5,45,30.6,45,30.6L45,30.6z M45.2,30.1c0.1-0.3,0.4-1.3,0.4-1.3l0.1-0.1c0.1,0,0.1,0,0.2,0l0,0.1c0,0,0,0,0,0   C45.7,29.5,45.4,29.9,45.2,30.1L45.2,30.1z M46.7,29c0.1-0.5,0.6-0.9,1-0.8c0.4,0.1,0.6,0.5,0.6,0.9c0,0,0,0,0,0v3.2h-2.6   C45.9,31.8,46.7,29,46.7,29L46.7,29z M50.9,31.8c0,0-0.6,0.2-1,0.9c0,0-0.3-0.7-1.1-1V29c0,0,0-0.8-0.8-1.2l-0.5-2.4   c0,0,0-0.2-0.2-0.4c0,0,0.7-0.3,1.1-1c0.3-0.7,0.4-1.3,0-1.9h0.4c0,0,0-0.5-0.6-0.5h-0.9c0,0-0.3,0-0.6,0.2c0,0,0-0.7,0.8-0.8h1.1   c0,0,0.6,0,0.6-0.5h-0.8c0,0,0.2-0.3,0.9-0.3s1.5,0.4,1.9,0.6L50.6,21l0.5,0.4c0,0-0.3,1.7,0.2,2.5c0,0,0.4,0.7,1.1,1   c0,0-0.1,0.1-0.2,0.4l-0.6,2.5c0,0-0.7,0.3-0.8,1.2L50.9,31.8L50.9,31.8z M51.4,32.3v-3.2c0-0.4,0.3-0.8,0.6-0.9   c0.5-0.1,0.9,0.2,1,0.8c0,0,0.7,2.5,0.9,3.3L51.4,32.3L51.4,32.3z M55.5,33.9v-0.2c0-0.5-0.4-1-0.9-1.1l-0.2-0.9h0.4   c0.3,0.7,0.8,0.8,0.8,0.9c0.1,0,0.1,0,0.2,0s0.1-0.1,0-0.2L55.6,32c0.4,0.4,0.7,0.5,0.7,0.5c0.1,0,0.1,0,0.2,0s0-0.1,0-0.2L56.4,32   c0.5,0.5,0.9,0.5,0.9,0.5c0.1,0,0.1,0,0.2-0.1c0,0,0-0.1,0-0.2L57.4,32c0.6,0.5,1.1,0.6,1.1,0.6c0.1,0,0.1,0,0.2-0.1   c0,0,0-0.1,0-0.2L58.4,32c0.7,0.6,1.3,0.6,1.3,0.6c0.1,0,0.1,0,0.1-0.1c0-0.1,0-0.1,0-0.2l-0.3-0.4c0.9,0.6,1.6,0.6,1.6,0.6   c0.1,0,0.1,0,0.1-0.1c0-0.1,0-0.1,0-0.2l-0.2-0.3c1.1,0.7,1.8,0.6,1.8,0.6c0.1,0,0.1,0,0.1-0.1s0-0.1,0-0.2l-0.3-0.3   c1.3,0.7,2.2,0.5,2.2,0.5c0.1,0,0.1-0.1,0.1-0.1c0-0.1,0-0.1-0.1-0.2l0,0c1.1,0.5,1.9,0.3,1.9,0.3c0.1,0,0.1-0.1,0.1-0.1   c0-0.1,0-0.1-0.1-0.2c1.2,0.5,2.1,0.3,2.1,0.3c0.1,0,0.1-0.1,0.2-0.2c0,0,0-0.1,0-0.2c1.3,0.5,2.1,0.3,2.2,0.3   c0.1,0,0.2-0.1,0.2-0.2s0-0.2-0.1-0.2l-2.1-1.8l-9.5-8.3c-1.7-1.4-4-1.4-5.2-0.1c-0.4,0.5-0.7,1.1-0.8,1.9c0,0.3-0.1,0.6-0.3,0.7   c-0.1,0.1-0.2,0.1-0.4,0.2c-0.4,0-1-0.2-1.3-0.6c-0.1-0.2-0.2-0.4-0.3-0.6c-0.3-1.1,0.1-2.7,0.1-2.7l0-0.2l-0.3-0.2   c-1.3-0.7-2.3-0.9-3-0.6c-0.5,0.2-0.7,0.5-0.8,0.7h-0.3c-0.7,0-1.3,0.6-1.3,1.3l0.1,0.8l0.3-0.3c0.5-0.3,0.9-0.3,1.3-0.1   c0.4,0.4,0.4,1.1-0.1,1.8c-0.5,0.6-1.3,0.8-1.7,0.5c-0.2-0.1-0.3-0.4-0.3-0.7c-0.1-0.8-0.4-1.5-0.8-1.9c-1.2-1.3-3.5-1.3-5.2,0.1   c0,0-4.9,4.2-8.1,7.1c-1.2,1.1-3.5,3-3.5,3c-0.1,0.1-0.1,0.2-0.1,0.2s0.1,0.2,0.2,0.2c0.1,0,0.9,0.2,2.2-0.3c0,0,0,0.1,0,0.2   c0,0.1,0.1,0.1,0.2,0.2c0,0,0.9,0.2,2.1-0.3c0,0-0.1,0.1,0,0.2c0,0.1,0.1,0.1,0.1,0.1c0,0,0.8,0.2,1.9-0.3l0,0c0,0-0.1,0.1-0.1,0.2   c0,0.1,0.1,0.1,0.1,0.1c0,0,0.9,0.2,2.2-0.5c-0.2,0.2-0.3,0.3-0.3,0.3c0,0-0.1,0.1,0,0.2c0,0.1,0.1,0.1,0.1,0.1   c0,0,0.8,0.1,1.8-0.6l-0.2,0.3c0,0,0,0.1,0,0.1c0,0,0,0,0,0.1c0,0.1,0.1,0.1,0.1,0.1c0,0,0.7,0.1,1.6-0.6l-0.3,0.4c0,0,0,0.1,0,0.2   c0,0.1,0.1,0.1,0.1,0.1c0,0,0.6,0,1.3-0.6c-0.1,0.2-0.2,0.3-0.2,0.3c0,0,0,0.1,0,0.2c0,0,0.1,0.1,0.2,0.1c0,0,0.5,0,1.2-0.6   c-0.1,0.2-0.2,0.3-0.2,0.3c0,0,0,0.1,0,0.2c0,0,0.1,0.1,0.2,0.1c0,0,0.4-0.1,0.9-0.5c-0.1,0.2-0.1,0.3-0.1,0.3c0,0.1,0,0.1,0,0.2   c0,0,0.1,0.1,0.2,0c0,0,0.4-0.1,0.7-0.5c0,0.2-0.1,0.3-0.1,0.3c0,0.1,0,0.1,0,0.2s0.1,0.1,0.2,0c0,0,0.5-0.2,0.8-0.9h0.4   c-0.1,0.4-0.2,0.7-0.2,0.9c-0.5,0.1-0.9,0.5-0.9,1.1v0.2h0.4c0,0-0.1-0.9,0.7-0.9c0,0,0.2,0,0.4,0.1c0,0-0.2,0.3-0.2,0.8H46   c0,0-0.1-0.9,0.7-0.9c0,0,0.7,0,0.7,0.9h0.4c0,0,0.1-0.5-0.1-0.8c0,0,0.2-0.2,0.5-0.2c0.3,0,0.8,0.2,0.7,1h2.2   c-0.1-0.7,0.3-1,0.7-1s0.5,0.2,0.5,0.2c-0.2,0.3-0.1,0.8-0.1,0.8h0.4c-0.1-0.9,0.7-0.9,0.7-0.9c0.8,0,0.7,0.9,0.7,0.9h0.4   c0.1-0.5-0.2-0.8-0.2-0.8c0.1-0.1,0.4-0.1,0.4-0.1c0.8,0,0.7,0.9,0.7,0.9L55.5,33.9L55.5,33.9z M53.9,28.8   C53.9,28.8,53.9,28.8,53.9,28.8L53.9,28.8c0-0.1,0.1-0.2,0.2-0.1l0.1,0.1c0,0,0.3,0.9,0.4,1.3C54.3,29.9,54,29.6,53.9,28.8   L53.9,28.8z M54.7,30.6C54.7,30.6,54.7,30.6,54.7,30.6L54.7,30.6c0-0.1,0.1-0.1,0.2-0.1c0,0,0,0,0,0c0,0,0.2,0.9,0.4,1.4   C55.1,31.7,54.8,31.3,54.7,30.6L54.7,30.6z M55.2,30.5L55.2,30.5L55.2,30.5L55.2,30.5c0-0.1,0-0.1,0.1-0.2c0,0,0.1,0,0.1,0   c0,0,0.1,0,0.1,0.1c0,0,0.4,1,0.6,1.6C55.8,31.8,55.5,31.3,55.2,30.5L55.2,30.5z M55.8,30.4C55.8,30.4,55.8,30.4,55.8,30.4   c0-0.1,0-0.1,0-0.1c0-0.1,0.1-0.1,0.2-0.1c0,0,0.1,0,0.1,0.1c0,0,0.6,1.1,0.9,1.8C56.7,31.8,56.2,31.4,55.8,30.4L55.8,30.4z    M56.6,30.4C56.6,30.4,56.5,30.4,56.6,30.4c0-0.1,0-0.1,0-0.1c0-0.1,0-0.1,0.1-0.1c0,0,0.1,0,0.1,0c0,0,0.1,0,0.1,0.1   c0,0,0.8,1.3,1.2,1.9C57.7,31.9,57.1,31.5,56.6,30.4z M57.4,30.4L57.4,30.4c0,0,0-0.1,0-0.1c0,0,0,0,0,0c0-0.1,0.1-0.2,0.3-0.2   c0.1,0,0.1,0,0.1,0.1c0,0,1,1.4,1.5,2.1C58.9,32,58.2,31.6,57.4,30.4L57.4,30.4z M58.5,30.3L58.5,30.3c0,0,0-0.1,0-0.2v0   c0-0.1,0-0.1,0.1-0.2c0,0,0.1-0.1,0.2-0.1c0.1,0,0.2,0,0.2,0.1c0,0,1.3,1.5,1.9,2.2C60.3,32,59.4,31.7,58.5,30.3L58.5,30.3z    M59.7,30.3L59.7,30.3c0-0.1-0.1-0.1-0.1-0.2l0,0c0-0.2,0.2-0.3,0.3-0.3c0.1,0,0.2,0,0.2,0.1c0,0,1.6,1.7,2.3,2.4   C62,32.1,60.9,31.8,59.7,30.3z M61.2,30.3L61.2,30.3c-0.1-0.1-0.1-0.1-0.1-0.2c0,0,0,0,0,0c0-0.1,0-0.2,0.1-0.2s0.2-0.1,0.2-0.1   c0.1,0,0.2,0,0.3,0.1c0,0,2,1.7,2.8,2.4C63.9,32.1,62.7,31.8,61.2,30.3z M62.7,30L62.7,30c-0.1-0.1-0.1-0.2-0.1-0.3l0,0   c0-0.2,0.2-0.4,0.4-0.4c0.1,0,0.2,0,0.3,0.1c0,0,2.2,1.9,3.1,2.7C65.7,32.1,64.4,31.7,62.7,30z M64.5,29.7   c-0.1-0.1-0.1-0.2-0.1-0.3v0c0-0.1,0-0.2,0.1-0.3s0.2-0.1,0.3-0.1c0.1,0,0.2,0,0.3,0.1c0,0,2.4,2.1,3.4,3   C67.8,32,66.3,31.7,64.5,29.7z M66.3,29.4L66.3,29.4c-0.1-0.1-0.1-0.2-0.1-0.3v0c0-0.1,0.1-0.2,0.1-0.3c0.1-0.1,0.2-0.1,0.3-0.1   c0.1,0,0.3,0,0.4,0.1c0,0,2.7,2.3,3.8,3.3C69.9,32,68.3,31.6,66.3,29.4L66.3,29.4z" />

        <path class="st3"
            d="M65.6,55.2c-0.1,0.1-0.4,0-0.6-0.1c0.4-0.4,0.6-0.9,0.5-1.4c0-0.5-0.3-0.9-0.7-1.2c-0.1,0-0.2,0-0.2,0   c0,0,0,0,0,0.1c-0.1-0.1-0.3-0.3-0.4-0.4c-0.7-0.6-1.7-0.8-2.4-0.5l-0.1,0l0,0.1c-0.3,0.7-0.2,1.7,0.4,2.4c0.1,0.2,0.2,0.3,0.4,0.4   c0,0,0,0-0.1,0c0,0-0.1,0.1-0.1,0.1c0,0,0,0.1,0,0.1c0.2,0.4,0.7,0.7,1.1,0.7c0.4,0,0.9-0.1,1.2-0.3c0.1,0.1,0.2,0.1,0.4,0.2   c0.2,0.1,0.3,0.1,0.5,0.1c0.2,0,0.2,0,0.3-0.3C66,55,65.8,55.1,65.6,55.2L65.6,55.2z M62.3,54c-0.3-0.5-0.5-1-0.5-1.5   c0-0.2,0-0.4,0.1-0.6c0.6-0.2,1.4,0,2,0.5c0.2,0.2,0.4,0.3,0.5,0.5c0,0.1,0,0.2,0,0.2c-0.2-0.3-0.5-0.5-0.6-0.5   c-0.1,0-0.2,0-0.2,0.1c-0.1,0.2-0.1,0.4-0.1,0.6c0,0.2,0.1,0.3,0.1,0.5c-0.3-0.1-0.7-0.2-1,0c-0.1,0-0.1,0.1-0.1,0.1c0,0,0,0,0,0   c0,0.2,0.3,0.4,0.5,0.6c-0.1,0-0.2,0-0.2,0C62.6,54.4,62.4,54.3,62.3,54L62.3,54z M62.7,54.9c0.2-0.1,0.4-0.1,0.7-0.1   c0.1,0,0.1,0,0.2-0.1c0,0,0,0,0,0c0,0,0-0.1-0.1-0.1c-0.3-0.2-0.5-0.4-0.6-0.6c0.2,0,0.5-0.1,0.9,0.1c0.1,0,0.1,0,0.2,0   c0,0,0-0.1,0-0.1c0,0,0,0,0-0.1c-0.1-0.2-0.2-0.4-0.2-0.6c0-0.1,0-0.2,0-0.3c0.2,0.1,0.4,0.3,0.6,0.6c0,0.1,0.1,0.1,0.2,0.1   c0.1,0,0.1-0.1,0.1-0.1c0,0,0-0.1,0-0.1c0-0.2,0.1-0.4,0.1-0.6c0.2,0.2,0.4,0.5,0.4,0.8c0,0,0,0.1,0,0.1c0,0.4-0.2,0.8-0.5,1.1   c-0.3,0.3-0.8,0.5-1.2,0.4C63,55.3,62.8,55.1,62.7,54.9L62.7,54.9z" />

        <path class="st3"
            d="M45.3,55.2c-0.1,0.1-0.4,0-0.6-0.1c0.4-0.4,0.6-0.9,0.5-1.4c0-0.5-0.3-0.9-0.7-1.2c-0.1,0-0.2,0-0.2,0   c0,0,0,0,0,0.1c-0.1-0.1-0.3-0.3-0.4-0.4c-0.7-0.6-1.7-0.8-2.4-0.5l-0.1,0l0,0.1c-0.3,0.7-0.2,1.7,0.4,2.4c0.1,0.2,0.2,0.3,0.4,0.4   c0,0,0,0-0.1,0c0,0-0.1,0.1-0.1,0.1c0,0,0,0.1,0,0.1c0.2,0.4,0.7,0.7,1.1,0.7c0.4,0,0.9-0.1,1.2-0.3c0.1,0.1,0.2,0.1,0.4,0.2   c0.2,0.1,0.3,0.1,0.5,0.1c0.2,0,0.2,0,0.3-0.3C45.7,55,45.5,55.1,45.3,55.2L45.3,55.2z M42,54c-0.3-0.5-0.5-1-0.5-1.5   c0-0.2,0-0.4,0.1-0.6c0.6-0.2,1.4,0,2,0.5c0.2,0.2,0.3,0.3,0.5,0.5c0,0.1,0,0.2,0,0.2c-0.2-0.3-0.5-0.5-0.6-0.5   c-0.1,0-0.2,0-0.2,0.1c-0.1,0.2-0.1,0.4-0.1,0.6c0,0.2,0.1,0.3,0.1,0.5c-0.3-0.1-0.7-0.2-1,0c-0.1,0-0.1,0.1-0.1,0.1c0,0,0,0,0,0   c0,0.2,0.3,0.4,0.5,0.6c-0.1,0-0.2,0-0.2,0C42.3,54.4,42.1,54.3,42,54L42,54z M42.4,54.9c0.2-0.1,0.4-0.1,0.7-0.1   c0.1,0,0.1,0,0.2-0.1c0,0,0,0,0,0c0,0,0-0.1-0.1-0.1c-0.3-0.2-0.5-0.4-0.6-0.6c0.2,0,0.5-0.1,0.9,0.1c0.1,0,0.1,0,0.2,0   c0,0,0-0.1,0-0.1c0,0,0,0,0-0.1c-0.1-0.2-0.2-0.4-0.2-0.6c0-0.1,0-0.2,0-0.3c0.2,0.1,0.4,0.3,0.6,0.6c0,0.1,0.1,0.1,0.2,0.1   c0.1,0,0.1-0.1,0.1-0.1c0,0,0-0.1,0-0.1c0-0.2,0-0.4,0.1-0.6c0.2,0.2,0.4,0.5,0.4,0.8c0,0,0,0.1,0,0.1c0,0.4-0.2,0.8-0.5,1.1   c-0.3,0.3-0.8,0.5-1.2,0.4C42.8,55.3,42.5,55.1,42.4,54.9L42.4,54.9z" />

        <path class="st3"
            d="M38.5,55.2c-0.1,0.1-0.4,0-0.6-0.1c0.4-0.4,0.6-0.9,0.5-1.4c0-0.5-0.3-0.9-0.7-1.2c-0.1,0-0.2,0-0.2,0   c0,0,0,0,0,0.1c-0.1-0.1-0.3-0.3-0.4-0.4c-0.7-0.6-1.7-0.8-2.4-0.5l-0.1,0l0,0.1c-0.3,0.7-0.2,1.7,0.4,2.4c0.1,0.2,0.2,0.3,0.4,0.4   c0,0,0,0-0.1,0c0,0-0.1,0.1-0.1,0.1c0,0,0,0.1,0,0.1c0.2,0.4,0.7,0.7,1.1,0.7c0.4,0,0.9-0.1,1.2-0.3c0.1,0.1,0.2,0.1,0.4,0.2   c0.2,0.1,0.3,0.1,0.5,0.1c0.2,0,0.3,0,0.3-0.3C38.9,55,38.8,55.1,38.5,55.2L38.5,55.2z M35.2,54c-0.3-0.5-0.5-1-0.5-1.5   c0-0.2,0-0.4,0.1-0.6c0.6-0.2,1.4,0,2,0.5c0.2,0.2,0.3,0.3,0.5,0.5c0,0.1,0,0.2,0,0.2c-0.2-0.3-0.5-0.5-0.6-0.5   c-0.1,0-0.2,0-0.2,0.1c-0.1,0.2-0.1,0.4-0.1,0.6c0,0.2,0.1,0.3,0.1,0.5c-0.3-0.1-0.7-0.2-1,0c-0.1,0-0.1,0.1-0.1,0.1c0,0,0,0,0,0   c0.1,0.2,0.3,0.4,0.5,0.6c-0.1,0-0.2,0-0.2,0C35.5,54.4,35.3,54.3,35.2,54L35.2,54z M35.6,54.9c0.2-0.1,0.4-0.1,0.7-0.1   c0.1,0,0.1,0,0.2-0.1c0,0,0,0,0,0c0,0,0-0.1-0.1-0.1c-0.3-0.2-0.5-0.4-0.6-0.6c0.2,0,0.5-0.1,0.9,0.1c0.1,0,0.1,0,0.2,0   c0,0,0-0.1,0-0.1c0,0,0,0,0-0.1c-0.1-0.2-0.2-0.4-0.2-0.6c0-0.1,0-0.2,0-0.3c0.2,0.1,0.4,0.3,0.6,0.6c0,0.1,0.1,0.1,0.2,0.1   c0.1,0,0.1-0.1,0.1-0.1c0,0,0-0.1,0-0.1c0-0.2,0-0.4,0.1-0.6c0.2,0.2,0.4,0.5,0.4,0.8c0,0,0,0.1,0,0.1c0,0.4-0.2,0.8-0.5,1.1   c-0.3,0.3-0.8,0.5-1.2,0.4C36,55.3,35.7,55.1,35.6,54.9L35.6,54.9z" />

        <path class="st3"
            d="M51.9,55.2c-0.1,0.1-0.4,0-0.6-0.1c0.4-0.4,0.6-0.9,0.5-1.4c0-0.5-0.3-0.9-0.7-1.2c-0.1,0-0.2,0-0.2,0   c0,0,0,0,0,0.1c-0.1-0.1-0.3-0.3-0.4-0.4c-0.7-0.6-1.7-0.8-2.4-0.5l-0.1,0l0,0.1c-0.3,0.7-0.2,1.7,0.4,2.4c0.1,0.2,0.2,0.3,0.4,0.4   c0,0,0,0-0.1,0c0,0-0.1,0.1-0.1,0.1c0,0,0,0.1,0,0.1c0.2,0.4,0.7,0.7,1.1,0.7c0.4,0,0.9-0.1,1.2-0.3c0.1,0.1,0.2,0.1,0.4,0.2   c0.2,0.1,0.3,0.1,0.5,0.1c0.2,0,0.2,0,0.3-0.3C52.3,55,52.1,55.1,51.9,55.2L51.9,55.2z M48.6,54c-0.3-0.5-0.5-1-0.5-1.5   c0-0.2,0-0.4,0.1-0.6c0.6-0.2,1.4,0,2,0.5c0.2,0.2,0.3,0.3,0.5,0.5c0,0.1,0,0.2,0,0.2c-0.2-0.3-0.5-0.5-0.6-0.5   c-0.1,0-0.2,0-0.2,0.1c-0.1,0.2-0.1,0.4-0.1,0.6c0,0.2,0.1,0.3,0.1,0.5c-0.3-0.1-0.7-0.2-1,0c-0.1,0-0.1,0.1-0.1,0.1c0,0,0,0,0,0   c0,0.2,0.3,0.4,0.5,0.6c-0.1,0-0.2,0-0.2,0C48.9,54.4,48.7,54.3,48.6,54L48.6,54z M49,54.9c0.2-0.1,0.4-0.1,0.7-0.1   c0.1,0,0.1,0,0.2-0.1c0,0,0,0,0,0c0,0,0-0.1-0.1-0.1c-0.3-0.2-0.5-0.4-0.6-0.6c0.2,0,0.5-0.1,0.9,0.1c0.1,0,0.1,0,0.2,0   c0,0,0-0.1,0-0.1c0,0,0,0,0-0.1c-0.1-0.2-0.2-0.4-0.2-0.6c0-0.1,0-0.2,0-0.3c0.2,0.1,0.4,0.3,0.6,0.6c0,0.1,0.1,0.1,0.2,0.1   c0.1,0,0.1-0.1,0.1-0.1c0,0,0-0.1,0-0.1c0-0.2,0-0.4,0.1-0.6c0.2,0.2,0.4,0.5,0.4,0.8c0,0,0,0.1,0,0.1c0,0.4-0.2,0.8-0.5,1.1   c-0.3,0.3-0.8,0.5-1.2,0.4C49.4,55.3,49.1,55.1,49,54.9L49,54.9z" />

        <path class="st3"
            d="M51.9,69.5c-0.1,0.1-0.4,0-0.6-0.1c0.4-0.4,0.6-0.9,0.5-1.4c0-0.5-0.3-0.9-0.7-1.2c-0.1,0-0.2,0-0.2,0   c0,0,0,0.1,0,0.1c-0.1-0.1-0.3-0.3-0.4-0.4c-0.7-0.6-1.7-0.8-2.4-0.5l-0.1,0l0,0.1c-0.3,0.7-0.2,1.7,0.4,2.4   c0.1,0.2,0.2,0.3,0.4,0.4c0,0,0,0-0.1,0c0,0-0.1,0.1-0.1,0.1c0,0,0,0.1,0,0.1c0.2,0.4,0.7,0.7,1.1,0.7c0.4,0.1,0.9-0.1,1.2-0.3   c0.1,0.1,0.2,0.1,0.4,0.2c0.2,0.1,0.3,0.1,0.5,0.1c0.2,0,0.2,0,0.3-0.3C52.3,69.4,52.1,69.4,51.9,69.5L51.9,69.5z M48.6,68.4   c-0.3-0.4-0.5-1-0.5-1.4c0-0.2,0-0.4,0.1-0.6c0.6-0.2,1.4-0.1,2,0.4c0.2,0.2,0.3,0.3,0.5,0.5c0,0.1,0,0.2,0,0.2   c-0.2-0.3-0.5-0.5-0.6-0.6c-0.1,0-0.2,0-0.2,0.1c-0.1,0.2-0.1,0.4-0.1,0.6c0,0.2,0.1,0.3,0.1,0.5c-0.3-0.1-0.7-0.2-1-0.1   c-0.1,0-0.1,0.1-0.1,0.1c0,0,0,0,0,0c0,0.2,0.3,0.4,0.5,0.6c-0.1,0-0.2,0-0.2,0C48.9,68.7,48.7,68.6,48.6,68.4L48.6,68.4z M49,69.2   c0.2-0.1,0.4-0.1,0.7-0.1c0.1,0,0.1,0,0.2-0.1c0,0,0,0,0,0c0-0.1,0-0.1-0.1-0.1c-0.3-0.2-0.5-0.4-0.6-0.6c0.2-0.1,0.5-0.1,0.9,0.1   c0.1,0,0.1,0,0.2,0c0,0,0-0.1,0-0.1c0,0,0-0.1,0-0.1c-0.1-0.2-0.2-0.4-0.2-0.6c0-0.1,0-0.2,0-0.3c0.2,0.1,0.4,0.3,0.6,0.6   c0,0.1,0.1,0.1,0.2,0.1c0.1,0,0.1-0.1,0.1-0.2c0,0,0-0.1,0-0.1c0-0.2,0-0.4,0.1-0.6c0.2,0.2,0.4,0.5,0.4,0.8c0,0.1,0,0.1,0,0.1   c0,0.4-0.2,0.8-0.5,1.1c-0.3,0.3-0.8,0.5-1.2,0.4C49.4,69.6,49.1,69.4,49,69.2L49,69.2z" />

        <path class="st3"
            d="M51.9,76.7c-0.1,0.1-0.4,0-0.6-0.1c0.4-0.4,0.6-0.9,0.5-1.4c0-0.5-0.3-0.9-0.7-1.2c-0.1,0-0.2,0-0.2,0   c0,0,0,0.1,0,0.1c-0.1-0.1-0.3-0.3-0.4-0.4c-0.7-0.6-1.7-0.8-2.4-0.5l-0.1,0l0,0.1c-0.3,0.7-0.2,1.7,0.4,2.4   c0.1,0.2,0.2,0.3,0.4,0.4c0,0,0,0-0.1,0c0,0-0.1,0.1-0.1,0.1c0,0,0,0.1,0,0.1c0.2,0.4,0.7,0.7,1.1,0.7c0.4,0.1,0.9-0.1,1.2-0.3   c0.1,0.1,0.2,0.1,0.4,0.2c0.2,0.1,0.3,0.1,0.5,0.1c0.2,0,0.2,0,0.3-0.3C52.3,76.5,52.1,76.6,51.9,76.7L51.9,76.7z M48.6,75.5   c-0.3-0.4-0.5-1-0.5-1.4c0-0.2,0-0.4,0.1-0.6c0.6-0.2,1.4,0,2,0.4c0.2,0.2,0.3,0.3,0.5,0.5c0,0.1,0,0.2,0,0.2   c-0.2-0.3-0.5-0.5-0.6-0.6c-0.1,0-0.2,0-0.2,0.1c-0.1,0.2-0.1,0.4-0.1,0.6c0,0.2,0.1,0.3,0.1,0.5c-0.3-0.1-0.7-0.2-1-0.1   c-0.1,0-0.1,0.1-0.1,0.1c0,0,0,0,0,0c0,0.2,0.3,0.4,0.5,0.6c-0.1,0-0.2,0-0.2,0C48.9,75.9,48.7,75.8,48.6,75.5L48.6,75.5z M49,76.4   c0.2-0.1,0.4-0.1,0.7-0.1c0.1,0,0.1,0,0.2-0.1c0,0,0,0,0,0c0-0.1,0-0.1-0.1-0.1c-0.3-0.2-0.5-0.4-0.6-0.6c0.2-0.1,0.5-0.1,0.9,0.1   c0.1,0,0.1,0,0.2,0c0,0,0-0.1,0-0.1c0,0,0-0.1,0-0.1c-0.1-0.2-0.2-0.4-0.2-0.6c0-0.1,0-0.2,0-0.3c0.2,0.1,0.4,0.3,0.6,0.6   c0,0.1,0.1,0.1,0.2,0.1c0.1,0,0.1-0.1,0.1-0.2c0,0,0-0.1,0-0.1c0-0.2,0-0.4,0.1-0.6c0.2,0.2,0.4,0.5,0.4,0.8c0,0.1,0,0.1,0,0.1   c0,0.4-0.2,0.8-0.5,1.1c-0.3,0.3-0.8,0.5-1.2,0.4C49.4,76.8,49.1,76.5,49,76.4L49,76.4z" />

        <path class="st3"
            d="M51.9,62.3c-0.1,0.1-0.4,0-0.6-0.1c0.4-0.4,0.6-0.9,0.5-1.4c0-0.5-0.3-0.9-0.7-1.2c-0.1,0-0.2,0-0.2,0   c0,0,0,0,0,0.1c-0.1-0.1-0.3-0.3-0.4-0.4c-0.7-0.6-1.7-0.8-2.4-0.5l-0.1,0l0,0.1c-0.3,0.7-0.2,1.7,0.4,2.4c0.1,0.2,0.2,0.3,0.4,0.4   c0,0,0,0-0.1,0c0,0-0.1,0.1-0.1,0.1c0,0,0,0,0,0.1c0.2,0.4,0.7,0.7,1.1,0.7c0.4,0,0.9-0.1,1.2-0.3c0.1,0.1,0.2,0.1,0.4,0.2   c0.2,0.1,0.3,0.1,0.5,0.1c0.2,0,0.2,0,0.3-0.3C52.3,62.2,52.1,62.2,51.9,62.3L51.9,62.3z M48.6,61.2c-0.3-0.5-0.5-1-0.5-1.5   c0-0.2,0-0.4,0.1-0.6c0.6-0.2,1.4,0,2,0.5c0.2,0.2,0.3,0.3,0.5,0.5c0,0.1,0,0.2,0,0.2c-0.2-0.3-0.5-0.5-0.6-0.5   c-0.1,0-0.2,0-0.2,0.1c-0.1,0.2-0.1,0.4-0.1,0.6c0,0.2,0.1,0.3,0.1,0.5c-0.3-0.1-0.7-0.2-1,0c-0.1,0-0.1,0.1-0.1,0.1c0,0,0,0,0,0   c0,0.2,0.3,0.4,0.5,0.6c-0.1,0-0.2,0-0.2,0C48.9,61.6,48.7,61.4,48.6,61.2L48.6,61.2z M49,62.1c0.2-0.1,0.4-0.1,0.7-0.1   c0.1,0,0.1,0,0.2-0.1c0,0,0,0,0,0c0,0,0-0.1-0.1-0.1c-0.3-0.2-0.5-0.4-0.6-0.6c0.2,0,0.5-0.1,0.9,0.1c0.1,0,0.1,0,0.2,0   c0,0,0-0.1,0-0.1c0,0,0,0,0-0.1c-0.1-0.2-0.2-0.4-0.2-0.6c0-0.1,0-0.2,0-0.3c0.2,0.1,0.4,0.3,0.6,0.6c0,0.1,0.1,0.1,0.2,0.1   c0.1,0,0.1-0.1,0.1-0.2c0,0,0-0.1,0-0.1c0-0.2,0-0.5,0.1-0.6c0.2,0.2,0.4,0.5,0.4,0.8c0,0,0,0.1,0,0.1c0,0.4-0.2,0.8-0.5,1.1   c-0.3,0.3-0.8,0.5-1.2,0.4C49.4,62.4,49.1,62.2,49,62.1L49,62.1z" />

        <path class="st3"
            d="M51.9,47.6c-0.1,0.1-0.4,0-0.6-0.1c0.4-0.4,0.6-0.9,0.5-1.4c0-0.5-0.3-0.9-0.7-1.2c-0.1,0-0.2,0-0.2,0   c0,0,0,0,0,0.1c-0.1-0.1-0.3-0.3-0.4-0.4c-0.7-0.6-1.7-0.8-2.4-0.5l-0.1,0l0,0.1c-0.3,0.7-0.2,1.7,0.4,2.4c0.1,0.2,0.2,0.3,0.4,0.4   c0,0,0,0-0.1,0c0,0-0.1,0.1-0.1,0.1c0,0,0,0,0,0.1c0.2,0.4,0.7,0.7,1.1,0.7c0.4,0,0.9-0.1,1.2-0.3c0.1,0.1,0.2,0.1,0.4,0.2   c0.2,0.1,0.3,0.1,0.5,0.1c0.2,0,0.2,0,0.3-0.3C52.3,47.5,52.1,47.5,51.9,47.6L51.9,47.6z M48.6,46.5c-0.3-0.5-0.5-1-0.5-1.5   c0-0.2,0-0.4,0.1-0.6c0.6-0.2,1.4,0,2,0.5c0.2,0.2,0.3,0.3,0.5,0.5c0,0.1,0,0.2,0,0.2c-0.2-0.3-0.5-0.5-0.6-0.5   c-0.1,0-0.2,0-0.2,0.1c-0.1,0.2-0.1,0.4-0.1,0.6c0,0.2,0.1,0.3,0.1,0.5c-0.3-0.1-0.7-0.2-1,0c-0.1,0-0.1,0.1-0.1,0.1c0,0,0,0,0,0   c0,0.2,0.3,0.4,0.5,0.6c-0.1,0-0.2,0-0.2,0C48.9,46.9,48.7,46.7,48.6,46.5L48.6,46.5z M49,47.3c0.2-0.1,0.4-0.1,0.7-0.1   c0.1,0,0.1,0,0.2-0.1c0,0,0,0,0,0c0,0,0-0.1-0.1-0.1c-0.3-0.2-0.5-0.4-0.6-0.6c0.2,0,0.5-0.1,0.9,0.1c0.1,0,0.1,0,0.2,0   c0,0,0-0.1,0-0.1c0,0,0,0,0-0.1c-0.1-0.2-0.2-0.4-0.2-0.6c0-0.1,0-0.2,0-0.3c0.2,0.1,0.4,0.3,0.6,0.6c0,0.1,0.1,0.1,0.2,0.1   c0.1,0,0.1-0.1,0.1-0.2c0,0,0-0.1,0-0.1c0-0.2,0-0.4,0.1-0.6c0.2,0.2,0.4,0.5,0.4,0.8c0,0,0,0.1,0,0.1c0,0.4-0.2,0.8-0.5,1.1   c-0.3,0.3-0.8,0.5-1.2,0.4C49.4,47.7,49.1,47.5,49,47.3L49,47.3z" />

        <path class="st3"
            d="M51.9,40.2c-0.1,0.1-0.4,0-0.6-0.1c0.4-0.4,0.6-0.9,0.5-1.4c0-0.5-0.3-0.9-0.7-1.2c-0.1,0-0.2,0-0.2,0   c0,0,0,0,0,0.1c-0.1-0.1-0.3-0.3-0.4-0.4c-0.7-0.6-1.7-0.8-2.4-0.5l-0.1,0l0,0.1c-0.3,0.7-0.2,1.7,0.4,2.4c0.1,0.2,0.2,0.3,0.4,0.4   c0,0,0,0-0.1,0c0,0-0.1,0.1-0.1,0.1c0,0,0,0,0,0.1c0.2,0.4,0.7,0.7,1.1,0.7c0.4,0,0.9-0.1,1.2-0.3c0.1,0.1,0.2,0.1,0.4,0.2   c0.2,0.1,0.3,0.1,0.5,0.1c0.2,0,0.2,0,0.3-0.3C52.3,40,52.1,40.1,51.9,40.2L51.9,40.2z M48.6,39c-0.3-0.5-0.5-1-0.5-1.5   c0-0.2,0-0.4,0.1-0.6c0.6-0.2,1.4,0,2,0.5c0.2,0.2,0.3,0.3,0.5,0.5c0,0.1,0,0.2,0,0.2c-0.2-0.3-0.5-0.5-0.6-0.5   c-0.1,0-0.2,0-0.2,0.1c-0.1,0.2-0.1,0.4-0.1,0.6c0,0.2,0.1,0.3,0.1,0.5c-0.3-0.1-0.7-0.2-1,0c-0.1,0-0.1,0.1-0.1,0.1c0,0,0,0,0,0   c0,0.2,0.3,0.4,0.5,0.6c-0.1,0-0.2,0-0.2,0C48.9,39.4,48.7,39.2,48.6,39L48.6,39z M49,39.9c0.2-0.1,0.4-0.1,0.7-0.1   c0.1,0,0.1,0,0.2-0.1c0,0,0,0,0,0c0,0,0-0.1-0.1-0.1c-0.3-0.2-0.5-0.4-0.6-0.6c0.2,0,0.5-0.1,0.9,0.1c0.1,0,0.1,0,0.2,0   c0,0,0-0.1,0-0.1c0,0,0,0,0-0.1c-0.1-0.2-0.2-0.4-0.2-0.6c0-0.1,0-0.2,0-0.3c0.2,0.1,0.4,0.3,0.6,0.6c0,0.1,0.1,0.1,0.2,0.1   c0.1,0,0.1-0.1,0.1-0.2c0,0,0-0.1,0-0.1c0-0.2,0-0.4,0.1-0.6c0.2,0.2,0.4,0.5,0.4,0.8c0,0,0,0.1,0,0.1c0,0.4-0.2,0.8-0.5,1.1   c-0.3,0.3-0.8,0.5-1.2,0.4C49.4,40.3,49.1,40,49,39.9L49,39.9z" />

        <path class="st3"
            d="M58.8,55.2c-0.1,0.1-0.4,0-0.6-0.1c0.4-0.4,0.6-0.9,0.5-1.4c0-0.5-0.3-0.9-0.7-1.2c-0.1,0-0.2,0-0.2,0   c0,0,0,0,0,0.1c-0.1-0.1-0.3-0.3-0.4-0.4c-0.7-0.6-1.7-0.8-2.4-0.5l-0.1,0l0,0.1c-0.3,0.7-0.2,1.7,0.4,2.4c0.1,0.2,0.2,0.3,0.4,0.4   c0,0,0,0-0.1,0c0,0-0.1,0.1-0.1,0.1c0,0,0,0.1,0,0.1c0.2,0.4,0.7,0.7,1.1,0.7c0.4,0,0.9-0.1,1.2-0.3c0.1,0.1,0.2,0.1,0.4,0.2   c0.2,0.1,0.3,0.1,0.5,0.1c0.2,0,0.3,0,0.3-0.3C59.2,55,59.1,55.1,58.8,55.2L58.8,55.2z M55.5,54c-0.3-0.5-0.5-1-0.5-1.5   c0-0.2,0-0.4,0.1-0.6c0.6-0.2,1.4,0,2,0.5c0.2,0.2,0.3,0.3,0.5,0.5c0,0.1,0,0.2,0,0.2c-0.2-0.3-0.5-0.5-0.6-0.5   c-0.1,0-0.2,0-0.2,0.1c-0.1,0.2-0.1,0.4-0.1,0.6c0,0.2,0.1,0.3,0.1,0.5c-0.3-0.1-0.7-0.2-1,0c-0.1,0-0.1,0.1-0.1,0.1c0,0,0,0,0,0   c0,0.2,0.3,0.4,0.5,0.6c-0.1,0-0.2,0-0.2,0C55.8,54.4,55.7,54.3,55.5,54L55.5,54z M55.9,54.9c0.2-0.1,0.4-0.1,0.7-0.1   c0.1,0,0.1,0,0.2-0.1c0,0,0,0,0,0c0,0,0-0.1-0.1-0.1c-0.3-0.2-0.5-0.4-0.6-0.6c0.2,0,0.5-0.1,0.9,0.1c0.1,0,0.1,0,0.2,0   c0,0,0-0.1,0-0.1c0,0,0,0,0-0.1C57,53.6,57,53.4,57,53.3c0-0.1,0-0.2,0-0.3c0.2,0.1,0.4,0.3,0.6,0.6c0,0.1,0.1,0.1,0.2,0.1   c0.1,0,0.1-0.1,0.1-0.1c0,0,0-0.1,0-0.1c0-0.2,0-0.4,0.1-0.6c0.2,0.2,0.4,0.5,0.4,0.8c0,0,0,0.1,0,0.1c0,0.4-0.2,0.8-0.5,1.1   c-0.3,0.3-0.8,0.5-1.2,0.4C56.3,55.3,56,55.1,55.9,54.9L55.9,54.9z" />
        <g>
            <path class="st0"
                d="M18.1,80.4l1.1-1.1l0.4,0.4L19,80.4v0.2l1.1,1.1l3.9-4.2l0-0.2l-0.5-0.5l0.3-0.3l1.9,1.8l-0.3,0.3L25,78.1    l-0.2,0l-3.9,4.2l1.1,1.1h0.2l0.8-0.6l0.4,0.4l-1.1,1.1L18.1,80.4L18.1,80.4z" />

            <path class="st0"
                d="M21.5,74.6l-0.4-0.4l-0.2-0.1l-4.5,3.3v0.2l0.3,0.5l-0.3,0.2l-2.9-3.9l1.2-0.9L15,74l-0.6,0.6l0,0.2l1.4,1.9    l2.1-1.5l-1-1.3l-0.2,0l-0.6,0.4l-0.3-0.4l1.8-1.3l0.3,0.4l-0.5,0.5l0,0.2l1,1.3l2.3-1.7L18.8,71l-0.2,0l-0.9,0.5l-0.3-0.4l1.3-1    l3.1,4.2L21.5,74.6L21.5,74.6z" />

            <path class="st0"
                d="M10.7,69.6l0.4-0.2l0.3,0.5l0.1,0l1.3-2.1l-2.5-0.4l-0.1,0.1l0.2,0.6l-0.4,0.2l-0.9-1.9l0.4-0.2l0.4,0.5    l3.2,0.5l2-3.1l-0.2-0.7l0.4-0.2l1.1,2.3L16,65.9l-0.4-0.6h-0.2l-1.5,2.3l2.7,0.5l0.1-0.1l-0.2-0.6l0.4-0.2L18,69l-0.4,0.2    l-0.4-0.6L13.8,68L12,70.9l0.2,0.7l-0.4,0.2L10.7,69.6L10.7,69.6z" />

            <path class="st0"
                d="M7.4,60.4l5.6-3.8l0-0.6l0.4-0.1l0.5,2.2l-0.4,0.1l-0.2-0.6l-0.1,0l-1.7,1.2L12,61l2.1,0.2l0.1-0.1l-0.1-0.7    l0.4-0.1l0.5,1.9l-0.4,0.1l-0.3-0.5l-6.7-0.8C7.6,61.1,7.4,60.4,7.4,60.4z M11.5,61L11,59l-2.5,1.7C8.6,60.7,11.5,61,11.5,61z" />

            <path class="st0"
                d="M11.3,54.5l0-0.6l1.2-0.2l0.2-0.1c0.1-0.3,0.2-0.7,0.2-1.2c-0.1-1-0.6-1.5-1.3-1.5c-0.8,0-1,0.6-1.4,1.8    c-0.4,1.2-0.8,1.8-1.8,1.8c-1.1,0-2-0.8-2.1-2.2c0-0.6,0-1.1,0.2-1.7L8,50.5L8,51l-0.9,0.2l-0.2,0.2c-0.1,0.3-0.2,0.6-0.2,0.9    c0,0.9,0.6,1.3,1.3,1.3c0.7,0,0.9-0.5,1.3-1.5c0.2-0.5,0.3-1.1,0.8-1.6c0.3-0.3,0.6-0.5,1.1-0.5c1.2-0.1,2.1,0.9,2.2,2.5    c0,0.7-0.1,1.4-0.2,1.8L11.3,54.5L11.3,54.5z" />

            <path class="st0"
                d="M8.1,37.8l1.5,0.3l-0.1,0.5l-0.9-0.1l-0.2,0.1L8,40.2l5.6,1.3l0.2-0.2l0.2-0.7l0.4,0.1l-0.6,2.6l-0.4-0.1    l0.1-0.7l-0.1-0.2l-5.6-1.3l-0.3,1.5l0.1,0.2l0.9,0.3l-0.1,0.5l-1.5-0.3L8.1,37.8L8.1,37.8z" />

            <path class="st0"
                d="M14.8,37.8l0.2-0.5L14.9,37l-5.1-2.2l-0.2,0.1l-0.3,0.5L9,35.2l1.9-4.4l1.4,0.6L12,31.9l-0.9-0.2L11,31.7    l-0.9,2.1l2.4,1l0.7-1.5L13,33.2l-0.6-0.4l0.2-0.4l2,0.9l-0.2,0.4l-0.7-0.2l-0.2,0.1l-0.7,1.5l2.6,1.1l1.1-2.5l-0.1-0.2L15.6,33    l0.2-0.5l1.5,0.7l-2.1,4.8L14.8,37.8L14.8,37.8z" />

            <path class="st0"
                d="M20,29.1c-0.4,0.5-0.8,1-1.3,1.2c-1.1,0.5-2.5,0.4-3.6-0.3c-1.7-1.2-2.1-3.1-0.9-4.9c0.3-0.5,0.8-1,1.4-1.5    l1.3,0.9L16.6,25l-0.9-0.4h-0.2c-0.4,0.2-0.6,0.5-0.9,0.8c-0.9,1.2-0.5,2.7,1,3.7c1.6,1.1,3.1,0.9,4-0.5c0.2-0.2,0.3-0.5,0.4-0.8    l0-0.2l-0.8-0.8l0.3-0.5l1.3,0.9C20.7,27.9,20.4,28.6,20,29.1L20,29.1z" />

            <path class="st0"
                d="M19.1,19.6l0.3,0.3l-0.4,0.5l0,0.2l1.7,1.7l2.5-2.4l-1.7-1.7l-0.2,0l-0.5,0.4l-0.3-0.3l1.8-1.7l0.3,0.3    l-0.4,0.5l0,0.2l3.9,4l0.2,0l0.5-0.4l0.3,0.3l-1.8,1.7l-0.3-0.3l0.4-0.5l0-0.2l-1.9-1.9l-2.5,2.4l1.9,1.9l0.2,0l0.5-0.4l0.3,0.3    l-1.8,1.7l-0.3-0.3l0.4-0.4l0-0.2l-3.9-4l-0.2,0l-0.5,0.4l-0.3-0.3L19.1,19.6L19.1,19.6z" />

            <path class="st0"
                d="M30.3,11.4l0.2,0.4L30,12.1l-0.1,0.2l1.6,3.3c0.6,1.2,1.3,1.6,2.5,1c1.2-0.5,1.3-1.4,0.8-2.6l-1.6-3.2    l-0.2-0.1l-0.6,0.2l-0.2-0.4l1.9-0.9l0.2,0.4l-0.5,0.4l-0.1,0.2l1.6,3.3c0.3,0.7,0.5,1.2,0.4,1.8c-0.1,0.6-0.7,1.2-1.5,1.6    c-0.9,0.4-1.7,0.5-2.2,0.2c-0.6-0.3-0.9-0.7-1.2-1.4L29,12.7l-0.2-0.1l-0.5,0.2l-0.2-0.4L30.3,11.4L30.3,11.4z" />

            <path class="st0"
                d="M38.3,14.9l0.6-0.2l0.1-0.2L37.7,9l-0.2-0.1L36.9,9l-0.1-0.4l1.9-0.4l0.1,0.2l4.5,4.3l-1.1-4.6L42,7.9L41.3,8    l-0.1-0.4l2.1-0.5l0.1,0.4l-0.6,0.2L42.7,8l1.4,6l-0.7,0.1l-5.1-4.7l1.2,4.9l0.2,0.1l0.6-0.1l0.1,0.4l-2.1,0.5L38.3,14.9    L38.3,14.9z" />

            <path class="st0"
                d="M46.4,13.3l0.6-0.1l0.2-0.1l-0.3-5.6l-0.2-0.1l-0.7,0l0-0.4l2.6-0.2l0,0.4l-0.6,0.1l-0.2,0.2l0.3,5.6l0.2,0.1    h0.7l0,0.4l-2.6,0.2L46.4,13.3L46.4,13.3z" />

            <path class="st0"
                d="M53.2,6.8l0,0.4h-0.6l-0.1,0.1l1.4,5.3l2.3-4.9l-0.1-0.2l-0.6-0.1l0-0.4l2,0.2l0,0.4l-0.6,0.1l-2.9,6.1    l-0.7-0.1l-1.8-6.5L50.8,7l0-0.4L53.2,6.8L53.2,6.8z" />

            <path class="st0"
                d="M58.2,13.9l0.6,0.1L59,14l1.6-5.4l-0.1-0.2l-0.5-0.2L60,7.8l4.6,1.4l-0.4,1.4l-0.5-0.2l0.1-0.9l-0.1-0.2    l-2.2-0.7l-0.7,2.5l1.6,0.5l0.2-0.1l0.3-0.7l0.5,0.1l-0.6,2.1L62.2,13l0.1-0.7l-0.1-0.2l-1.6-0.5l-0.8,2.7l2.6,0.8l0.2-0.1    l0.5-0.9l0.5,0.1l-0.5,1.6l-5-1.5L58.2,13.9L58.2,13.9z" />

            <path class="st0"
                d="M69.9,11.5c1.4,0.8,1.9,1.6,1.3,2.8c-0.4,0.8-1.2,1-2.2,0.7c0.4,0.4,0.6,0.7,0.6,1.1c0,0.5-0.2,1-0.3,1.5    c-0.1,0.6,0.2,0.9,0.8,1.2c0,0,0.1,0,0.1,0l-0.2,0.3c-0.3-0.1-0.5-0.2-0.7-0.3c-0.4-0.2-0.7-0.5-0.8-0.7c-0.2-0.6,0-1.2,0.2-1.9    c0.1-0.9-0.1-1.3-0.9-1.7c-0.1-0.1-0.3-0.1-0.5-0.2l-1.1,2.1l0.1,0.2l0.5,0.3l-0.2,0.4l-2.1-1.1l0.2-0.4l0.5,0.2l0.2,0l2.6-4.9    L68,11l-0.5-0.3l0.2-0.4L69.9,11.5L69.9,11.5z M67.6,14c0.3,0.1,0.4,0.2,0.5,0.3c1.1,0.6,1.8,0.5,2.2-0.4c0.5-0.9,0.1-1.6-1-2.1    l-0.4-0.2L67.6,14L67.6,14z" />

            <path class="st0"
                d="M72.5,18.6l0.5,0.4l-0.6,1v0.2c0.1,0.3,0.4,0.6,0.7,0.9c0.8,0.6,1.5,0.6,1.9,0c0.5-0.7,0.2-1.2-0.4-2.2    c-0.6-1.1-0.8-1.7-0.2-2.5c0.7-0.9,1.9-1,3-0.1c0.4,0.4,0.8,0.8,1.2,1.3l-1,1.2l-0.4-0.3l0.5-0.9v-0.2c-0.1-0.3-0.3-0.5-0.6-0.7    c-0.7-0.5-1.4-0.5-1.8,0.1c-0.4,0.5-0.2,1,0.3,1.9c0.3,0.5,0.6,1,0.7,1.6c0.1,0.4-0.1,0.8-0.3,1.1c-0.8,0.9-2.1,1-3.3,0    c-0.6-0.5-1-0.9-1.2-1.4L72.5,18.6z" />

            <path class="st0"
                d="M76.1,23.7l0.5,0.4l0.2,0l4-3.9l0-0.2l-0.4-0.5l0.3-0.3l1.8,1.8l-0.3,0.3L81.6,21l-0.2,0l-4,3.9l0,0.2    l0.4,0.5l-0.3,0.3L75.8,24C75.8,24,76.1,23.7,76.1,23.7z" />

            <path class="st0"
                d="M87.4,27.7l-1.3,0.9l-0.3-0.5l0.7-0.7l0-0.2L85.6,26L81,29.3v0.2l0.3,0.6L81,30.3l-1.5-2.2l0.3-0.2l0.4,0.5    l0.2,0.1l4.7-3.3l-0.9-1.3l-0.2,0l-0.8,0.4l-0.3-0.5l1.3-0.9L87.4,27.7L87.4,27.7z" />

            <path class="st0"
                d="M89.6,32l-0.4,0.2L89,31.7l-0.1,0l-1.9,2.5l3.2,0.5l0.1-0.1L90,33.9l0.4-0.2l0.8,1.9l-0.4,0.2l-0.4-0.5    l-3.9-0.6l-2.1,0.9l-0.1,0.2l0.2,0.7l-0.4,0.2l-1.1-2.4l0.4-0.2l0.3,0.6l0.2,0.1l2-0.9l2.4-3.3L88.3,30l0.4-0.2    C88.7,29.9,89.6,32,89.6,32z" />

            <path class="st0"
                d="M88.2,42.7l0.1,0.6l-1.1,0.3L87,43.7c-0.1,0.3-0.1,0.7-0.1,1.2c0.1,1,0.7,1.4,1.4,1.3    c0.8-0.1,0.9-0.7,1.2-1.9c0.3-1.2,0.6-1.8,1.6-2c1.1-0.2,2.1,0.6,2.3,2c0.1,0.5,0.1,1.1,0,1.8l-1.6,0.2l-0.1-0.5l0.9-0.3l0.2-0.2    c0.1-0.3,0.1-0.6,0.1-0.9c-0.1-0.8-0.7-1.3-1.4-1.2c-0.7,0.1-0.8,0.6-1.1,1.6c-0.1,0.5-0.2,1.1-0.6,1.6c-0.2,0.3-0.6,0.5-1,0.6    c-1.2,0.2-2.2-0.7-2.4-2.3c-0.1-0.7-0.1-1.4,0.1-1.8L88.2,42.7L88.2,42.7z" />

            <path class="st0"
                d="M93.7,51.3l-0.4,0l0-0.6l-0.1-0.1L90.3,52l2.6,1.8l0.1-0.1l0.1-0.6h0.4l-0.1,2.1l-0.4,0L93,54.5l-3.3-2.2    l-2.3-0.1l-0.2,0.2l-0.1,0.7l-0.4,0l0.1-2.6l0.4,0l0,0.7l0.1,0.2l2.2,0.1l3.6-1.9l0.1-0.6h0.4L93.7,51.3L93.7,51.3z" />

            <path class="st0"
                d="M88.5,56.4L88.3,57l-1.2-0.1L87,57c-0.2,0.2-0.4,0.6-0.5,1.1c-0.2,1,0.2,1.6,0.9,1.8c0.8,0.2,1.1-0.4,1.8-1.3    c0.7-1,1.2-1.5,2.2-1.3c1.1,0.2,1.7,1.3,1.4,2.7c-0.1,0.5-0.3,1.1-0.6,1.6l-1.5-0.3l0.1-0.5l1,0l0.2-0.1c0.2-0.2,0.3-0.5,0.4-0.8    c0.2-0.8-0.2-1.5-0.9-1.6c-0.7-0.1-1,0.3-1.6,1.1c-0.3,0.5-0.6,1-1.1,1.3c-0.3,0.2-0.8,0.3-1.2,0.2c-1.2-0.2-1.8-1.4-1.4-3    c0.2-0.7,0.4-1.3,0.7-1.7L88.5,56.4L88.5,56.4z" />

            <path class="st0"
                d="M89.3,69.6L87.9,69l0.2-0.5l0.9,0.2l0.2-0.1l0.6-1.4l-5.3-2.2l-0.2,0.1L84,65.8l-0.4-0.2l1-2.5l0.4,0.2    L84.8,64l0.1,0.2l5.3,2.2l0.6-1.4l-0.1-0.2l-0.8-0.5l0.2-0.5l1.4,0.6L89.3,69.6L89.3,69.6z" />

            <path class="st0"
                d="M82.7,68.5l-0.3,0.5l0,0.2l4.7,3l0.2-0.1l0.4-0.4l0.3,0.2l-2.6,4.1l-1.2-0.8l0.3-0.5l0.8,0.3l0.2,0l1.3-2    l-2.2-1.4l-0.9,1.4l0,0.2l0.6,0.5l-0.3,0.4L82.2,73l0.3-0.4l0.7,0.3l0.2,0l0.9-1.4l-2.4-1.5l-1.5,2.3l0.1,0.2l0.8,0.7l-0.3,0.4    l-1.4-0.9l2.8-4.4L82.7,68.5L82.7,68.5z" />

            <path class="st0"
                d="M79,74.2l-0.4,0.5V75l3.9,3.9h0.2l0.5-0.4l0.3,0.3l-1.5,1.5l-0.2-0.2l-4.9-2.3l2.2,4.9l0.2,0.2l-1.6,1.5    l-0.3-0.3l0.4-0.5v-0.2l-3.9-4l-0.2,0l-0.5,0.4l-0.3-0.3l1.7-1.7l0.3,0.3l-0.4,0.5l0,0.2l4,4.1l-2.7-6.2l0.3-0.3l6,2.8l-3.9-3.9    h-0.3l-0.5,0.4l-0.3-0.3l1.5-1.5L79,74.2L79,74.2z" />

        </g>
    </g>
</svg>